<?xml version="1.0" encoding="utf-8"?>
<!-- Generator: Adobe Illustrator 27.5.0, SVG Export Plug-In . SVG Version: 6.00 Build 0)  -->
<svg version="1.1" xmlns="http://www.w3.org/2000/svg" xmlns:xlink="http://www.w3.org/1999/xlink" x="0px" y="0px"
	 viewBox="0 0 4800 4800" style="enable-background:new 0 0 4800 4800;" xml:space="preserve">
<g id="Background">
	<rect style="fill:#F5F5F5;" width="4800" height="4800"/>
	<g>
		<rect id="background" style="fill:#F5F5F5;" width="4800" height="4800"/>
	</g>
</g>
<g id="Assets">
	<g>
		<g style="opacity:0.2;">
			<g>
				<path style="fill:#808285;" d="M4319.712,2476.695c0-132.101-11.194-258.607-30.226-381.754H2385.19v782.541h1094.886
					c-52.617,240.696-191.436,445.566-397.427,585.506l252.052,197.339l384.952,296.368
					C4099.168,3607.406,4319.712,3090.19,4319.712,2476.695z"/>
				<path style="fill:#808285;" d="M2385.19,4445.923c544.084,0,999.728-180.242,1333.343-488.109l-637.003-493.706
					c-182.481,124.266-418.698,198.155-696.339,198.155c-529.53,0-979.576-356.006-1141.905-837.397l-283.754,219.945
					L586.13,3334.244C917.507,3993.638,1598.171,4445.923,2385.19,4445.923z"/>
				<path style="fill:#808285;" d="M1243.285,2824.865c-42.541-124.266-66.052-256.369-66.052-394.07s23.51-269.802,66.052-394.069
					l-290.109-224.872L586.13,1527.347c-136.581,272.043-216.066,577.671-216.066,903.449c0,325.78,79.485,631.407,216.066,903.449
					L1243.285,2824.865z"/>
				<path style="fill:#808285;" d="M2385.19,1199.328c300.03,0,569.834,102.996,782.541,305.628v1.12l565.356-565.354
					c-349.289-325.78-803.812-525.054-1347.897-525.054c-787.019,0-1467.683,452.285-1799.061,1111.679l657.155,509.38
					C1405.614,1555.335,1855.66,1199.328,2385.19,1199.328z"/>
			</g>
		</g>
		<g>
			<path style="fill:#4285F4;" d="M4429.936,2415.104c0-132.101-11.194-258.607-30.226-381.754H2495.414v782.541H3590.3
				c-52.617,240.696-191.436,445.566-397.427,585.506l252.052,197.339l384.952,296.368
				C4209.392,3545.816,4429.936,3028.599,4429.936,2415.104z"/>
			<path style="fill:#34A853;" d="M2495.414,4384.333c544.084,0,999.728-180.242,1333.343-488.108l-637.003-493.707
				c-182.481,124.266-418.698,198.155-696.339,198.155c-529.53,0-979.576-356.006-1141.905-837.397l-283.754,219.945
				l-373.401,289.433C1027.731,3932.048,1708.395,4384.333,2495.414,4384.333z"/>
			<path style="fill:#FBBC05;" d="M1353.509,2763.275c-42.541-124.266-66.052-256.369-66.052-394.07s23.51-269.802,66.052-394.069
				L1063.4,1750.264l-367.046-284.508c-136.581,272.043-216.066,577.67-216.066,903.448c0,325.78,79.485,631.407,216.066,903.449
				L1353.509,2763.275z"/>
			<path style="fill:#EA4335;" d="M2495.414,1137.738c300.03,0,569.834,102.996,782.541,305.628v1.12l565.355-565.354
				c-349.288-325.78-803.812-525.054-1347.896-525.054c-787.019,0-1467.683,452.285-1799.061,1111.679l657.155,509.38
				C1515.838,1493.745,1965.884,1137.738,2495.414,1137.738z"/>
		</g>
	</g>
</g>
</svg>
