<svg height="300" viewBox="0 0 60 60" width="300" xmlns="http://www.w3.org/2000/svg" xmlns:sketch="http://www.bohemiancoding.com/sketch/ns" version="1.1" xmlns:xlink="http://www.w3.org/1999/xlink" xmlns:svgjs="http://svgjs.dev/svgjs"><g width="100%" height="100%" transform="matrix(1,0,0,1,0,0)"><g id="black" fill="none" fill-rule="evenodd"><g id="amazon"><path d="m30 60c16.5685433 0 30-13.4314567 30-30s-13.4314567-30-30-30-30 13.4314567-30 30 13.4314567 30 30 30z" fill="#000000" fill-opacity="1" data-original-color="#000000ff" stroke="none" stroke-opacity="1" style=""/><path d="m30.4209671 21.902223c-1.5803039.2102277-3.161018.495597-4.4664507 1.1313459-2.5423528 1.064225-4.2613229 3.3298717-4.2613229 6.6593214 0 4.180914 2.6120962 6.3030318 5.9101394 6.3030318 1.1011255 0 1.9942516-.1393075 2.8172239-.3520681 1.3070738-.4255211 2.406148-1.2039546 3.7115807-2.621092.756511 1.064225.9616387 1.559822 2.2683022 2.6911679.343794.1431068.687588.1431068.9616386-.0700759.8246134-.7083576 2.2666612-1.9823881 3.0248132-2.6911679.3429735-.2857915.2732301-.7087797.0689229-1.064225-.7573315-.9911941-1.5122014-1.8426585-1.5122014-3.7524379v-6.3764849c0-2.6937007.2043071-5.1721081-1.71856-7.0118115-1.5803038-1.4901683-4.0545542-2.0554191-5.9782418-2.0554191h-.8262544c-3.504812.2127606-7.2155721 1.7692054-8.0418265 6.2333781-.1353843.5652508.2773326.7784335.5522038.8514644l3.8477854.495597c.412717-.0730309.6178447-.4259433.6859471-.7818106.345435-1.556867 1.5815346-2.3348784 2.9558902-2.4779852h.2765122c.8221518 0 1.7165086.3554452 2.1985587 1.0608478.5472807.8518866.4808193 1.9857653.4808193 2.9769594v.5660951c-.893126.0726087-1.9240978.1426846-2.9554799.2853693zm2.9558902 3.8250467c0 1.6298979.0664614 2.9039284-.756511 4.3181108-.4808193.9911941-1.3054327 1.6294758-2.1993792 1.8426585-.1370253 0-.3413325.0730309-.5489218.0730309-1.5113809 0-2.4069685-1.2043768-2.4069685-2.9765373 0-2.2656467 1.3070738-3.3298717 2.9558903-3.8254687.8943568-.2127606 1.9253286-.2828365 2.9558902-.2828365zm12.6584307 19.8863588c1.6804061-1.4623068 2.3893275-4.1171703 2.4262505-5.5034911v-.2309128c0-.3098537-.073846-.5382336-.1472817-.653901-.3364095-.4225662-2.802865-.80925-4.929629-.1549269-.5969217.1946084-1.1208178.4622477-1.6057397.8088279-.3733324.2705943-.2990762.6137974.0746665.5770708.4102554-.0785187.9341515-.1148231 1.5310732-.1946083 1.3070737-.1122903 2.8381469-.1515497 3.2106588.3474245.5210244.6530567-.5969216 3.5021065-1.084305 4.7339226-.1472817.3866839.1878969.5411886.5243064.2705943zm-34.3117112-5.5034911c4.815578 4.5030099 11.1626394 7.1975549 18.2580067 7.1975549 4.4053226 0 9.4822333-1.2710755 13.4030443-3.6946041.5238961-.3102759 1.0449205-.6564339 1.5298424-1.0397407.6724086-.4989742.075487-1.2710755-.5969216-.9641768-.2982557.1156674-.6346652.2710164-.9325106.3862617-4.2957844 1.7333232-8.8102349 2.5417289-12.9936093 2.5417289-6.6465479 0-13.0674553-1.8874057-18.2571863-5.0040948-.4857424-.2680614-.8225621.2304907-.4106656.5770709z" fill="#ffffff" fill-opacity="1" data-original-color="#ffffffff" stroke="none" stroke-opacity="1" style=""/></g></g></g></svg>